<svg width="134" height="25" viewBox="0 0 134 25" fill="none" xmlns="http://www.w3.org/2000/svg">
<path d="M6.152 18.168C5.048 18.168 4.056 17.976 3.176 17.592C2.312 17.192 1.632 16.648 1.136 15.96C0.64 15.256 0.384 14.448 0.368 13.536H2.696C2.776 14.32 3.096 14.984 3.656 15.528C4.232 16.056 5.064 16.32 6.152 16.32C7.192 16.32 8.008 16.064 8.6 15.552C9.208 15.024 9.512 14.352 9.512 13.536C9.512 12.896 9.336 12.376 8.984 11.976C8.632 11.576 8.192 11.272 7.664 11.064C7.136 10.856 6.424 10.632 5.528 10.392C4.424 10.104 3.536 9.816 2.864 9.528C2.208 9.24 1.64 8.792 1.16 8.184C0.696 7.56 0.464 6.728 0.464 5.688C0.464 4.776 0.696 3.968 1.16 3.264C1.624 2.56 2.272 2.016 3.104 1.632C3.952 1.248 4.92 1.056 6.008 1.056C7.576 1.056 8.856 1.448 9.848 2.232C10.856 3.016 11.424 4.056 11.552 5.352H9.152C9.072 4.712 8.736 4.152 8.144 3.672C7.552 3.176 6.768 2.928 5.792 2.928C4.88 2.928 4.136 3.168 3.56 3.648C2.984 4.112 2.696 4.768 2.696 5.616C2.696 6.224 2.864 6.72 3.2 7.104C3.552 7.488 3.976 7.784 4.472 7.992C4.984 8.184 5.696 8.408 6.608 8.664C7.712 8.968 8.6 9.272 9.272 9.576C9.944 9.864 10.52 10.32 11 10.944C11.48 11.552 11.72 12.384 11.72 13.44C11.72 14.256 11.504 15.024 11.072 15.744C10.64 16.464 10 17.048 9.152 17.496C8.304 17.944 7.304 18.168 6.152 18.168ZM17.1179 7.272C17.5499 6.52 18.1899 5.896 19.0379 5.4C19.9019 4.888 20.9019 4.632 22.0379 4.632C23.2059 4.632 24.2619 4.912 25.2059 5.472C26.1659 6.032 26.9179 6.824 27.4619 7.848C28.0059 8.856 28.2779 10.032 28.2779 11.376C28.2779 12.704 28.0059 13.888 27.4619 14.928C26.9179 15.968 26.1659 16.776 25.2059 17.352C24.2619 17.928 23.2059 18.216 22.0379 18.216C20.9179 18.216 19.9259 17.968 19.0619 17.472C18.2139 16.96 17.5659 16.328 17.1179 15.576V24.24H14.9339V4.848H17.1179V7.272ZM26.0459 11.376C26.0459 10.384 25.8459 9.52 25.4459 8.784C25.0459 8.048 24.5019 7.488 23.8139 7.104C23.1419 6.72 22.3979 6.528 21.5819 6.528C20.7819 6.528 20.0379 6.728 19.3499 7.128C18.6779 7.512 18.1339 8.08 17.7179 8.832C17.3179 9.568 17.1179 10.424 17.1179 11.4C17.1179 12.392 17.3179 13.264 17.7179 14.016C18.1339 14.752 18.6779 15.32 19.3499 15.72C20.0379 16.104 20.7819 16.296 21.5819 16.296C22.3979 16.296 23.1419 16.104 23.8139 15.72C24.5019 15.32 25.0459 14.752 25.4459 14.016C25.8459 13.264 26.0459 12.384 26.0459 11.376ZM43.1527 10.92C43.1527 11.336 43.1287 11.776 43.0807 12.24H32.5687C32.6487 13.536 33.0887 14.552 33.8887 15.288C34.7047 16.008 35.6887 16.368 36.8407 16.368C37.7847 16.368 38.5687 16.152 39.1927 15.72C39.8327 15.272 40.2807 14.68 40.5367 13.944H42.8887C42.5367 15.208 41.8327 16.24 40.7767 17.04C39.7207 17.824 38.4087 18.216 36.8407 18.216C35.5927 18.216 34.4727 17.936 33.4807 17.376C32.5047 16.816 31.7367 16.024 31.1767 15C30.6167 13.96 30.3367 12.76 30.3367 11.4C30.3367 10.04 30.6087 8.848 31.1527 7.824C31.6967 6.8 32.4567 6.016 33.4327 5.472C34.4247 4.912 35.5607 4.632 36.8407 4.632C38.0887 4.632 39.1927 4.904 40.1527 5.448C41.1127 5.992 41.8487 6.744 42.3607 7.704C42.8887 8.648 43.1527 9.72 43.1527 10.92ZM40.8967 10.464C40.8967 9.632 40.7127 8.92 40.3447 8.328C39.9767 7.72 39.4727 7.264 38.8327 6.96C38.2087 6.64 37.5127 6.48 36.7447 6.48C35.6407 6.48 34.6967 6.832 33.9127 7.536C33.1447 8.24 32.7047 9.216 32.5927 10.464H40.8967ZM45.2195 11.4C45.2195 10.04 45.4915 8.856 46.0355 7.848C46.5795 6.824 47.3315 6.032 48.2915 5.472C49.2675 4.912 50.3795 4.632 51.6275 4.632C53.2435 4.632 54.5715 5.024 55.6115 5.808C56.6675 6.592 57.3635 7.68 57.6995 9.072H55.3475C55.1235 8.272 54.6835 7.64 54.0275 7.176C53.3875 6.712 52.5875 6.48 51.6275 6.48C50.3795 6.48 49.3715 6.912 48.6035 7.776C47.8355 8.624 47.4515 9.832 47.4515 11.4C47.4515 12.984 47.8355 14.208 48.6035 15.072C49.3715 15.936 50.3795 16.368 51.6275 16.368C52.5875 16.368 53.3875 16.144 54.0275 15.696C54.6675 15.248 55.1075 14.608 55.3475 13.776H57.6995C57.3475 15.12 56.6435 16.2 55.5875 17.016C54.5315 17.816 53.2115 18.216 51.6275 18.216C50.3795 18.216 49.2675 17.936 48.2915 17.376C47.3315 16.816 46.5795 16.024 46.0355 15C45.4915 13.976 45.2195 12.776 45.2195 11.4ZM69.4216 18L65.4376 11.16H62.7976V18H60.6136V1.272H66.0136C67.2776 1.272 68.3416 1.488 69.2056 1.92C70.0856 2.352 70.7416 2.936 71.1736 3.672C71.6056 4.408 71.8216 5.248 71.8216 6.192C71.8216 7.344 71.4856 8.36 70.8136 9.24C70.1576 10.12 69.1656 10.704 67.8376 10.992L72.0376 18H69.4216ZM62.7976 9.408H66.0136C67.1976 9.408 68.0856 9.12 68.6776 8.544C69.2696 7.952 69.5656 7.168 69.5656 6.192C69.5656 5.2 69.2696 4.432 68.6776 3.888C68.1016 3.344 67.2136 3.072 66.0136 3.072H62.7976V9.408ZM87.2152 10.92C87.2152 11.336 87.1912 11.776 87.1432 12.24H76.6312C76.7112 13.536 77.1512 14.552 77.9512 15.288C78.7672 16.008 79.7512 16.368 80.9032 16.368C81.8472 16.368 82.6312 16.152 83.2552 15.72C83.8952 15.272 84.3432 14.68 84.5992 13.944H86.9512C86.5992 15.208 85.8952 16.24 84.8392 17.04C83.7832 17.824 82.4712 18.216 80.9032 18.216C79.6552 18.216 78.5352 17.936 77.5432 17.376C76.5672 16.816 75.7992 16.024 75.2392 15C74.6792 13.96 74.3992 12.76 74.3992 11.4C74.3992 10.04 74.6712 8.848 75.2152 7.824C75.7592 6.8 76.5192 6.016 77.4952 5.472C78.4872 4.912 79.6232 4.632 80.9032 4.632C82.1512 4.632 83.2552 4.904 84.2152 5.448C85.1752 5.992 85.9112 6.744 86.4232 7.704C86.9512 8.648 87.2152 9.72 87.2152 10.92ZM84.9592 10.464C84.9592 9.632 84.7752 8.92 84.4072 8.328C84.0392 7.72 83.5352 7.264 82.8952 6.96C82.2712 6.64 81.5752 6.48 80.8072 6.48C79.7032 6.48 78.7592 6.832 77.9752 7.536C77.2072 8.24 76.7672 9.216 76.6552 10.464H84.9592ZM89.282 11.376C89.282 10.032 89.554 8.856 90.098 7.848C90.642 6.824 91.386 6.032 92.33 5.472C93.29 4.912 94.354 4.632 95.522 4.632C96.674 4.632 97.674 4.88 98.522 5.376C99.37 5.872 100.002 6.496 100.418 7.248V4.848H102.626V18H100.418V15.552C99.986 16.32 99.338 16.96 98.474 17.472C97.626 17.968 96.634 18.216 95.498 18.216C94.33 18.216 93.274 17.928 92.33 17.352C91.386 16.776 90.642 15.968 90.098 14.928C89.554 13.888 89.282 12.704 89.282 11.376ZM100.418 11.4C100.418 10.408 100.218 9.544 99.818 8.808C99.418 8.072 98.874 7.512 98.186 7.128C97.514 6.728 96.77 6.528 95.954 6.528C95.138 6.528 94.394 6.72 93.722 7.104C93.05 7.488 92.514 8.048 92.114 8.784C91.714 9.52 91.514 10.384 91.514 11.376C91.514 12.384 91.714 13.264 92.114 14.016C92.514 14.752 93.05 15.32 93.722 15.72C94.394 16.104 95.138 16.296 95.954 16.296C96.77 16.296 97.514 16.104 98.186 15.72C98.874 15.32 99.418 14.752 99.818 14.016C100.218 13.264 100.418 12.392 100.418 11.4ZM105.501 11.376C105.501 10.032 105.773 8.856 106.317 7.848C106.861 6.824 107.605 6.032 108.549 5.472C109.509 4.912 110.581 4.632 111.765 4.632C112.789 4.632 113.741 4.872 114.621 5.352C115.501 5.816 116.173 6.432 116.637 7.2V0.24H118.845V18H116.637V15.528C116.205 16.312 115.565 16.96 114.717 17.472C113.869 17.968 112.877 18.216 111.741 18.216C110.573 18.216 109.509 17.928 108.549 17.352C107.605 16.776 106.861 15.968 106.317 14.928C105.773 13.888 105.501 12.704 105.501 11.376ZM116.637 11.4C116.637 10.408 116.437 9.544 116.037 8.808C115.637 8.072 115.093 7.512 114.405 7.128C113.733 6.728 112.989 6.528 112.173 6.528C111.357 6.528 110.613 6.72 109.941 7.104C109.269 7.488 108.733 8.048 108.333 8.784C107.933 9.52 107.733 10.384 107.733 11.376C107.733 12.384 107.933 13.264 108.333 14.016C108.733 14.752 109.269 15.32 109.941 15.72C110.613 16.104 111.357 16.296 112.173 16.296C112.989 16.296 113.733 16.104 114.405 15.72C115.093 15.32 115.637 14.752 116.037 14.016C116.437 13.264 116.637 12.392 116.637 11.4ZM133.864 4.848L125.944 24.192H123.688L126.28 17.856L120.976 4.848H123.4L127.528 15.504L131.608 4.848H133.864Z" fill="#F5F6FA"/>
</svg>
